# xmcd CD database file
#
# Track frame offsets:
#	150
#	21993
#	46436
#	142790
#
# Disc length: 1987 seconds
#
# Revision: 0
# Processed by: cddbd v1.5.1PL0 Copyright (c) Steve Scherf et al.
# Submitted via: CDex 1.51
#
DISCID=2d07c104
DTITLE=テリオス - テリオスキャラクターCDコレクション Vol.3 ダイアナ・ハーディ
DYEAR=2004
DGENRE=Game
TTITLE0=ガラスの人形
TTITLE1=I・ZU・MO
TTITLE2=ミニドラマ『Maiden Holiday』
TTITLE3=message
EXTD=YEAR: 2004
EXTT0=
EXTT1=
EXTT2=
EXTT3=
PLAYORDER=
